<?xml version="1.0" encoding="utf-8"?>
<!-- Generator: Adobe Illustrator 21.0.2, SVG Export Plug-In . SVG Version: 6.00 Build 0)  -->
<svg version="1.1" id="Layer_1" xmlns="http://www.w3.org/2000/svg" xmlns:xlink="http://www.w3.org/1999/xlink" x="0px" y="0px"
	 width="30px" height="30px" viewBox="0 0 30 30" enable-background="new 0 0 30 30" xml:space="preserve">
<path fill="#ffb651" d="M30,16.3v9.7c0,1.2-1.3,1.8-2.2,1.2C27,26.6,26,26.3,25,26.3c-1.6,0-3,0.8-3.9,1.9c-0.5,0.7-1.6,0.7-2.1,0
	C18,27,16.6,26.3,15,26.3s-3,0.8-3.9,1.9c-0.5,0.7-1.6,0.7-2.1,0C8,27,6.6,26.3,5,26.3c-1,0-2,0.3-2.8,0.8c-1,0.6-2.2,0-2.2-1.2
	v-9.2C0,8.8,6,1.9,13.9,1.3c4.6-0.3,8.7,1.4,11.7,4.4C28.3,8.4,30,12.1,30,16.3z"/>
<circle fill="#FFFFFF" cx="20.6" cy="15" r="4.7"/>
<circle fill="#FFFFFF" cx="9.4" cy="15" r="4.7"/>
<circle fill="#2C2E33" cx="9.4" cy="15" r="3.3"/>
<circle fill="#2C2E33" cx="20.6" cy="15" r="3.3"/>
<circle fill="#FFFFFF" cx="22" cy="13.6" r="0.8"/>
<circle fill="#FFFFFF" cx="10.8" cy="13.6" r="0.8"/>
</svg>
