<?xml version="1.0" encoding="utf-8"?>
<!-- Generator: Adobe Illustrator 21.0.2, SVG Export Plug-In . SVG Version: 6.00 Build 0)  -->
<svg version="1.1" id="Layer_1" xmlns="http://www.w3.org/2000/svg" xmlns:xlink="http://www.w3.org/1999/xlink" x="0px" y="0px"
	 width="30px" height="30px" viewBox="0 0 30 30" enable-background="new 0 0 30 30" xml:space="preserve">
<circle fill="#2C2E33" cx="20.6" cy="15" r="4.7"/>
<circle fill="#2C2E33" cx="9.4" cy="15" r="4.7"/>
<circle fill="#FFFFFF" cx="9.4" cy="15" r="3.3"/>
<circle fill="#FFFFFF" cx="20.6" cy="15" r="3.3"/>
<path fill="#2C2E33" d="M10.8,16.4L10.8,16.4c-0.3,0.3-0.7,0.3-0.9,0L8,14.5c-0.3-0.3-0.3-0.7,0-0.9l0,0c0.3-0.3,0.7-0.3,0.9,0
	l1.9,1.9C11.1,15.7,11.1,16.2,10.8,16.4z"/>
<path fill="#2C2E33" d="M8,16.4L8,16.4c-0.3-0.3-0.3-0.7,0-0.9l1.9-1.9c0.3-0.3,0.7-0.3,0.9,0l0,0c0.3,0.3,0.3,0.7,0,0.9l-1.9,1.9
	C8.7,16.7,8.3,16.7,8,16.4z"/>
<path fill="#2C2E33" d="M22,16.4L22,16.4c-0.3,0.3-0.7,0.3-0.9,0l-1.9-1.9c-0.3-0.3-0.3-0.7,0-0.9v0c0.3-0.3,0.7-0.3,0.9,0l1.9,1.9
	C22.3,15.7,22.3,16.2,22,16.4z"/>
<path fill="#2C2E33" d="M19.2,16.4L19.2,16.4c-0.3-0.3-0.3-0.7,0-0.9l1.9-1.9c0.3-0.3,0.7-0.3,0.9,0l0,0c0.3,0.3,0.3,0.7,0,0.9
	l-1.9,1.9C19.9,16.7,19.4,16.7,19.2,16.4z"/>
</svg>
